# xmcd
#
# Track frame offsets:
#	150
#	26762
#	45218
#	70743
#	100803
#	127656
#	148477
#	174341
#	200785
#	228869
#	251006
#	270595
#	286861
#	308942
#	332363
#
# Disc length: 4741 seconds
#
# Revision: 0
# Processed by: cddbd v1.5.2PL0 Copyright (c) Steve Scherf et al.
# Submitted via: EasyCDDAExtractor 16.0.9.1
#
DISCID=ce12830f
DTITLE=Pastoral da Criança - Viva a Vida
DYEAR=1900
DGENRE=Gospel
TTITLE0=Régis Danese - Faz um milagre em mim
TTITLE1=P. Alessandro Campos - O que sou sem Jesus
TTITLE2=P. Zezinho - Oração da Família
TTITLE3=Roberto Carlos - Nossa Senhora
TTITLE4=P. Fábio de Melo - No meio de nós
TTITLE5=DeLucas e Lucian - Milagre no caixa sete
TTITLE6=Roupa Nova - A Paz
TTITLE7=Anderson Freire - Raridade
TTITLE8=P. Alessandro Campos - Maria
TTITLE9=DeLucas e Lucian - Janela para Jesus
TTITLE10=Teodoro e Sampaio - Quatro cantos da casa
TTITLE11=Chitãozinho e Xororó - Ave maria
TTITLE12=Lourenço e Lorival - Pedido de um pai
TTITLE13=Pedro Bento e Zé da Estrada - Sete palavras
TTITLE14=Anderson Freire - Deus e Seus milagres
EXTD=
EXTT0=
EXTT1=
EXTT2=
EXTT3=
EXTT4=
EXTT5=
EXTT6=
EXTT7=
EXTT8=
EXTT9=
EXTT10=
EXTT11=
EXTT12=
EXTT13=
EXTT14=
PLAYORDER=
